<svg xmlns="http://www.w3.org/2000/svg" width="51.521" height="37.52" viewBox="0 0 51.521 37.52">
  <g id="aloforush" transform="translate(-0.25 -0.268)">
    <rect id="Rectangle_5455" data-name="Rectangle 5455" width="9.217" height="5.883" rx="1" transform="translate(6.926 17.655)" fill="none" stroke="#a0aac0" stroke-width="1.5"/>
    <path id="Path_4239" data-name="Path 4239" d="M23.064,18.665h9.9m0,0L31.942,17.02m1.019,1.645,1.019,1.654" transform="translate(0.427 0.192)" fill="none" stroke="#a0aac0" stroke-linecap="round" stroke-width="1.5"/>
    <path id="Path_4240" data-name="Path 4240" d="M23.064,22.521h3.611" transform="translate(0.427 0.258)" fill="none" stroke="#a0aac0" stroke-linecap="round" stroke-width="1.5"/>
    <line id="Line_267" data-name="Line 267" x2="5.055" transform="translate(7.69 29.969)" fill="none" stroke="#a0aac0" stroke-linecap="round" stroke-width="1.5"/>
    <line id="Line_268" data-name="Line 268" x2="5.055" transform="translate(15.591 29.969)" fill="none" stroke="#a0aac0" stroke-linecap="round" stroke-width="1.5"/>
    <line id="Line_269" data-name="Line 269" x2="5.055" transform="translate(23.491 29.969)" fill="none" stroke="#a0aac0" stroke-linecap="round" stroke-width="1.5"/>
    <line id="Line_270" data-name="Line 270" x2="5.055" transform="translate(31.392 29.969)" fill="none" stroke="#a0aac0" stroke-linecap="round" stroke-width="1.5"/>
    <path id="Path_4241" data-name="Path 4241" d="M47.458,4.556a2.908,2.908,0,0,0,.32-3.47.1.1,0,0,0-.12-.042L30.04,7.758A2.035,2.035,0,0,0,29,8.637l-1.2,2.075" transform="translate(0.519 0)" fill="none" stroke="#a0aac0" stroke-linecap="round" stroke-width="1.5"/>
    <path id="Path_4242" data-name="Path 4242" d="M30.627,12.873l.642-1.486a2.033,2.033,0,0,1,1.143-1.092L49.886,3.636a.1.1,0,0,1,.13.059,5.7,5.7,0,0,1,.164,3.625c-.654,1.515-3.356,2.544-3.356,2.544m0,0a9.18,9.18,0,0,1-.342,3.926,5.6,5.6,0,0,1-2.816,2.338m3.158-6.264-6.336,2.414m3.178,3.85L40.72,17.25m2.945-1.122s.426,1.1-.555,3.375a5.291,5.291,0,0,1-2.6,2.89l-3.242,1.236" transform="translate(0.574 0.031)" fill="none" stroke="#a0aac0" stroke-linecap="round" stroke-width="1.5"/>
    <path id="Path_4243" data-name="Path 4243" d="M43.141,20.414V32.872a4.063,4.063,0,0,1-4.077,4.048H5.077A4.063,4.063,0,0,1,1,32.872V14.828A4.063,4.063,0,0,1,5.077,10.78H32.091" transform="translate(0 0.117)" fill="none" stroke="#a0aac0" stroke-linecap="round" stroke-width="1.5"/>
  </g>
</svg>
