<svg xmlns="http://www.w3.org/2000/svg" width="51.521" height="37.52" viewBox="0 0 51.521 37.52">
  <g id="alopost" transform="translate(-0.25 -0.268)">
    <path id="Path_4244" data-name="Path 4244" d="M47.458,4.556a2.908,2.908,0,0,0,.32-3.47.1.1,0,0,0-.12-.042L30.04,7.758A2.035,2.035,0,0,0,29,8.637l-1.2,2.075" transform="translate(0.519 0)" fill="none" stroke="#a0aac0" stroke-linecap="round" stroke-width="1.5"/>
    <path id="Path_4245" data-name="Path 4245" d="M2.5,12.6,17.281,23.413m16.055-5.068-6.881,5.068m0,0-4.587,3.356-4.587-3.356m9.174,0,11.213,12.97M17.281,23.413,6.068,36.382" transform="translate(0.029 0.139)" fill="none" stroke="#a0aac0" stroke-linecap="round" stroke-linejoin="round" stroke-width="1.5"/>
    <path id="Path_4246" data-name="Path 4246" d="M32,16.5l2.039,3.3" transform="translate(0.6 0.186)" fill="none" stroke="#a0aac0" stroke-linecap="round" stroke-width="1.5"/>
    <path id="Path_4247" data-name="Path 4247" d="M43.141,20.414V32.872a4.063,4.063,0,0,1-4.077,4.048H5.077A4.063,4.063,0,0,1,1,32.872V14.828A4.063,4.063,0,0,1,5.077,10.78H32.091" transform="translate(0 0.117)" fill="none" stroke="#a0aac0" stroke-linecap="round" stroke-width="1.5"/>
    <path id="Path_4248" data-name="Path 4248" d="M30.627,12.873l.642-1.486a2.033,2.033,0,0,1,1.143-1.092L49.886,3.636a.1.1,0,0,1,.13.059,5.7,5.7,0,0,1,.164,3.625c-.654,1.515-3.356,2.544-3.356,2.544m0,0a9.18,9.18,0,0,1-.342,3.926,5.6,5.6,0,0,1-2.816,2.338m3.158-6.264-6.336,2.414m3.178,3.85L40.72,17.25m2.945-1.122s.426,1.1-.555,3.375a5.291,5.291,0,0,1-2.6,2.89l-3.242,1.236" transform="translate(0.574 0.031)" fill="none" stroke="#a0aac0" stroke-linecap="round" stroke-width="1.5"/>
  </g>
</svg>
