<svg xmlns="http://www.w3.org/2000/svg" width="33.51" height="37.504" viewBox="0 0 33.51 37.504">
  <g id="alopeyk" transform="translate(-4.986 -5.025)">
    <path id="Path_4254" data-name="Path 4254" d="M14.936,14.411H6.38a.637.637,0,0,0-.643.63V38.909a.637.637,0,0,0,.643.63H30.766a.637.637,0,0,0,.643-.63V23.21m-16.474-8.8v6.071a.637.637,0,0,0,.643.63H23.5m-8.561-6.7h6.651" transform="translate(0 2.239)" fill="none" stroke="#a0aac0" stroke-width="1.5"/>
    <line id="Line_271" data-name="Line 271" x2="1.396" y2="2.325" transform="translate(22.592 21.945)" fill="none" stroke="#a0aac0" stroke-linecap="round" stroke-width="1.5"/>
    <path id="Path_4255" data-name="Path 4255" d="M13.137,26.3h6.628" transform="translate(2.122 5.323)" fill="none" stroke="#a0aac0" stroke-linecap="round" stroke-width="1.5"/>
    <path id="Path_4256" data-name="Path 4256" d="M17.489,18.316l.3-1.109a2.528,2.528,0,0,1,1.223-1.551l14.483-8a.125.125,0,0,1,.172.048,5,5,0,0,1,.618,3.154c-.384,1.425-2.669,2.688-2.669,2.688m0,0a8.1,8.1,0,0,1,.22,3.516,5.023,5.023,0,0,1-2.212,2.435m1.992-5.952L26.254,16.5m3.368,2.99-3.374,1.864m3.374-1.864s.53.919-.045,3.057a4.723,4.723,0,0,1-1.947,2.895l-2.742,1.516" transform="translate(3.37 0.482)" fill="none" stroke="#a0aac0" stroke-linecap="round" stroke-width="1.5"/>
    <path id="Path_4257" data-name="Path 4257" d="M14.93,16.458l.3-1.109A2.527,2.527,0,0,1,16.452,13.8l14.483-8a.125.125,0,0,1,.172.048A5,5,0,0,1,31.724,9" transform="translate(2.636)" fill="none" stroke="#a0aac0" stroke-linecap="round" stroke-width="1.5"/>
  </g>
</svg>
