<svg xmlns="http://www.w3.org/2000/svg" width="35.515" height="37.527" viewBox="0 0 35.515 37.527">
  <g id="alotaxi" transform="translate(-0.25 -0.275)">
    <path id="Path_4258" data-name="Path 4258" d="M1,18.62l13.38-2.3a.9.9,0,0,1,.967.976v6.64a1.017,1.017,0,0,1-.456.876L3.11,31.933M1,18.62s.844-10.847,10.971-14.3c6.114-2.084,10.536,1.224,13.081,4.173M1,18.62V33.165l2.11-1.233m0,0a5.815,5.815,0,0,0,2.954,4.931,4.453,4.453,0,0,0,2.532,0l21.1-10.354a38.216,38.216,0,0,0-.288-8.431" transform="translate(0 -0.037)" fill="none" stroke="#a0aac0" stroke-linejoin="round" stroke-width="1.5"/>
    <path id="Path_4259" data-name="Path 4259" d="M23.572,11.91l.46-1.254a1.839,1.839,0,0,1,.946-1.064L38.108,3.7a.079.079,0,0,1,.107.057,5.9,5.9,0,0,1,.121,3.214C37.843,8.32,35.8,9.235,35.8,9.235m0,0a9.554,9.554,0,0,1-.258,3.489A4.407,4.407,0,0,1,33.418,14.8M35.8,9.235l-4.784,2.146m2.4,3.422-3.012,1.351M33.418,14.8a5.05,5.05,0,0,1-.419,3,4.409,4.409,0,0,1-1.965,2.568l-2.448,1.1" transform="translate(-3.523 -0.037)" fill="none" stroke="#a0aac0" stroke-linecap="round" stroke-width="1.5"/>
    <path id="Path_4260" data-name="Path 4260" d="M36.142,4.307a5.9,5.9,0,0,0-.121-3.214.079.079,0,0,0-.107-.057L25.731,5.6" transform="translate(-3.86)" fill="none" stroke="#a0aac0" stroke-linecap="round" stroke-width="1.5"/>
  </g>
</svg>
