<svg xmlns="http://www.w3.org/2000/svg" width="59.574" height="37.543" viewBox="0 0 59.574 37.543">
  <g id="alovanet-white" transform="translate(-0.25 -1.242)">
    <path id="Path_4249" data-name="Path 4249" d="M17.182,35.256H38.193m9.822-1.52c.072,0,.359.005.791.014,2.2.042,8.193.156,8.844-.014.759-.2,1.043-1.247,1.238-1.97m.015-.057a3.581,3.581,0,0,0-.508-2.736,1.51,1.51,0,0,0-.745-.676M58.9,31.709l-.008.029m.008-.029-.008.029M57.651,28.3A20.841,20.841,0,0,1,54,28.3c.779-4.594,2.389-4.95,2.7-5.067a3.139,3.139,0,0,1,.948-.122m0,5.189s0-.009,0-.026m0,.026v-.026M7.327,34.547s-4.657.067-5.131-.405A4.2,4.2,0,0,1,1,30.97a2.862,2.862,0,0,1,1.669-2.785c-.006-1.081-.012-2.3.543-2.759a33.469,33.469,0,0,1,6.841-2.77c2.915-.791,6.006-1.52,6.006-1.52,1.206-.871,2.013-1.487,2.73-2.035a75.429,75.429,0,0,1,7.025-4.789,8.547,8.547,0,0,1,3.759-1.554c.4-.071,1.462-.12,2.237-.156m25.334,8.939c.275,0,.428.66.508,1.567m-.508-1.567c.849,0,.533,6.279.509,6.731m-.509-6.731H41.658m15.992,1.567a30.927,30.927,0,0,1,0,5.164m0-5.164a46.148,46.148,0,0,1,0,5.164m1.237,3.494.007-.028m-.007.028.007-.028" transform="translate(0 0.236)" fill="none" stroke="#fff" stroke-linecap="round" stroke-linejoin="round" stroke-width="1.5"/>
    <path id="Path_4250" data-name="Path 4250" d="M28.606,15.827l.407-1.07a2.045,2.045,0,0,1,.818-1L44.4,4.533a.1.1,0,0,1,.139.032,5.267,5.267,0,0,1,.8,3.236c-.312,1.486-2.552,2.9-2.552,2.9m0,0a8.5,8.5,0,0,1,.409,3.607,5.131,5.131,0,0,1-2.1,2.62m1.7-6.227-5.254,3.325m3.559,2.9-3.307,2.093M41.1,16.933s.584.919.117,3.148a4.856,4.856,0,0,1-1.812,3.08l-2.689,1.7" transform="translate(0.687 0.055)" fill="none" stroke="#fff" stroke-linecap="round" stroke-width="1.5"/>
    <path id="Path_4251" data-name="Path 4251" d="M42.213,5.98a4.716,4.716,0,0,0-.521-3.9.1.1,0,0,0-.135-.029L27,11.263a2.046,2.046,0,0,0-.834,1.045l-.746,2.1" transform="translate(0.608 0)" fill="none" stroke="#fff" stroke-linecap="round" stroke-width="1.5"/>
    <path id="Path_4252" data-name="Path 4252" d="M6.167,28.1a17.742,17.742,0,0,1-3.537-.068c0-1.023-.091-2.216.727-2.727a5.172,5.172,0,0,1,2.128.17A2.855,2.855,0,0,1,6.167,28.1Z" transform="translate(0.041 0.518)" fill="none" stroke="#fff" stroke-width="1.5"/>
    <ellipse id="Ellipse_210" data-name="Ellipse 210" cx="4.447" cy="4.436" rx="4.447" ry="4.436" transform="translate(7.909 29.165)" fill="none" stroke="#fff" stroke-width="1.5"/>
    <ellipse id="Ellipse_211" data-name="Ellipse 211" cx="4.447" cy="4.436" rx="4.447" ry="4.436" transform="translate(38.437 28.894)" fill="none" stroke="#fff" stroke-width="1.5"/>
    <ellipse id="Ellipse_212" data-name="Ellipse 212" cx="1.263" cy="1.26" rx="1.263" ry="1.26" transform="translate(11.115 32.372)" fill="none" stroke="#fff" stroke-width="1.5"/>
    <ellipse id="Ellipse_213" data-name="Ellipse 213" cx="1.263" cy="1.26" rx="1.263" ry="1.26" transform="translate(41.643 32.102)" fill="none" stroke="#fff" stroke-width="1.5"/>
    <path id="Path_4253" data-name="Path 4253" d="M32.383,21.4H20.837m11.546,0,1.108,1.225M32.383,21.4,31.274,20.17" transform="translate(0.494 0.405)" fill="none" stroke="#fff" stroke-linecap="round" stroke-linejoin="round" stroke-width="1.5"/>
  </g>
</svg>
