<svg width="42" height="38" viewBox="0 0 42 38" fill="none" xmlns="http://www.w3.org/2000/svg">
<path d="M7.84556 15.3428V20.2608C7.84622 20.4269 7.8796 20.5913 7.9438 20.7445C8.008 20.8977 8.10177 21.0368 8.21974 21.1538C8.33772 21.2708 8.47759 21.3634 8.63138 21.4264C8.78516 21.4894 8.94985 21.5214 9.11604 21.5208H14.7181C14.8843 21.5214 15.049 21.4894 15.2028 21.4264C15.3566 21.3634 15.4965 21.2708 15.6144 21.1538C15.7324 21.0368 15.8262 20.8977 15.8904 20.7445C15.9546 20.5913 15.988 20.4269 15.9886 20.2608V15.3428M7.84556 15.3428H1V36.9978H22.8342V15.3428H15.9886M7.84556 15.3428H15.9886" stroke="white" stroke-width="1.5" stroke-linejoin="round"/>
<path d="M8.78685 28.5029H15.0482" stroke="white" stroke-width="1.5" stroke-linecap="round"/>
<path d="M29.4735 22.293V25.357C29.4742 25.5231 29.5076 25.6875 29.5718 25.8407C29.636 25.9939 29.7297 26.133 29.8477 26.25C29.9657 26.367 30.1056 26.4596 30.2594 26.5226C30.4131 26.5856 30.5778 26.6176 30.744 26.617H34.3604C34.5266 26.6176 34.6912 26.5856 34.845 26.5226C34.9988 26.4596 35.1387 26.367 35.2567 26.25C35.3746 26.133 35.4684 25.9939 35.5326 25.8407C35.5968 25.6875 35.6302 25.5231 35.6308 25.357V22.293M29.4735 22.293H25.1389V36.993H39.9655V22.293H35.6308M29.4735 22.293H35.6308" stroke="white" stroke-width="1.5" stroke-linejoin="round"/>
<path d="M30.5902 31.0518H34.5156" stroke="white" stroke-width="1.5" stroke-linecap="round"/>
<path d="M32.6078 8.22381L32.6678 7.93481C32.7237 7.67029 32.8321 7.41969 32.9868 7.19791C33.1415 6.97613 33.3392 6.7877 33.5681 6.64381L40.4687 2.28481C40.4912 2.27102 40.5182 2.26665 40.5438 2.27264C40.5695 2.27863 40.5917 2.2945 40.6058 2.31681C40.9025 2.78989 41.0376 3.34641 40.9909 3.90281C40.8339 4.65181 39.7004 5.36781 39.7004 5.36781M39.7004 5.36781C39.9012 5.95079 39.9729 6.57041 39.9105 7.18381C39.7145 7.73101 39.3399 8.19633 38.8471 8.50481M39.6984 5.36481L37.0404 7.04781M38.8411 8.50581L37.1675 9.56481M38.8411 8.50781C39.0519 9.01148 39.0739 9.57422 38.9031 10.0928C38.807 10.7081 38.4796 11.2636 37.9878 11.6458L36.6273 12.5048" stroke="white" stroke-width="1.5" stroke-linecap="round"/>
<path d="M29.4596 8.41387L30.0448 6.44087C30.2021 6.04177 30.4824 5.70309 30.8451 5.47387L37.9038 1.01487C37.9152 1.00786 37.9278 1.0032 37.941 1.00117C37.9543 0.999131 37.9677 0.999764 37.9807 1.00303C37.9937 1.00629 38.0058 1.01212 38.0165 1.02016C38.0272 1.02821 38.0361 1.03831 38.0428 1.04987C38.2591 1.41806 38.3978 1.82659 38.4503 2.25034C38.5027 2.67408 38.4679 3.10408 38.348 3.51387" stroke="white" stroke-width="1.5" stroke-linecap="round"/>
<path d="M30.0368 8.3259L26.4355 9.0429C26.3699 9.05485 26.3074 9.07979 26.2515 9.11624C26.1957 9.1527 26.1478 9.19994 26.1105 9.25519C26.0732 9.31043 26.0474 9.37257 26.0345 9.43795C26.0215 9.50333 26.0218 9.57063 26.0353 9.6359L28.1291 20.0049C28.142 20.0707 28.1678 20.1333 28.205 20.189C28.2422 20.2448 28.2901 20.2926 28.3459 20.3298C28.4017 20.367 28.4643 20.3928 28.5301 20.4057C28.5959 20.4186 28.6636 20.4183 28.7293 20.4049L39.1832 18.3219C39.2488 18.3099 39.3114 18.285 39.3672 18.2486C39.423 18.2121 39.4709 18.1649 39.5082 18.1096C39.5455 18.0544 39.5713 17.9922 39.5843 17.9268C39.5972 17.8615 39.5969 17.7942 39.5834 17.7289L38.3239 11.4989M30.0368 8.3259L30.549 10.8599C30.5619 10.9257 30.5877 10.9883 30.6249 11.044C30.6621 11.0998 30.71 11.1476 30.7658 11.1848C30.8216 11.222 30.8842 11.2478 30.95 11.2607C31.0158 11.2736 31.0835 11.2733 31.1492 11.2599L33.8953 10.7139M30.0368 8.3259L32.7048 7.7959" stroke="white" stroke-width="1.5"/>
<path d="M33.8192 9.86572L34.5342 11.0017" stroke="white" stroke-width="1.5" stroke-linecap="round"/>
<path d="M31.8025 14.6866L34.1235 14.2246" stroke="white" stroke-width="1.5" stroke-linecap="round"/>
</svg>
