<svg xmlns="http://www.w3.org/2000/svg" xmlns:xlink="http://www.w3.org/1999/xlink" width="105" height="22.5" viewBox="0 0 105 22.5">
  <defs>
    <clipPath id="clip-path">
      <path id="Clip_5" data-name="Clip 5" d="M23.822,10.8c0-3.556,3.407-6.713.8-8.682C22.858.789,12.971,0,10.608,0A10.712,10.712,0,0,0,0,10.8a10.712,10.712,0,0,0,10.608,10.8c4.023,0,10.6-2.286,12.394-5.652A10.694,10.694,0,0,0,23.822,10.8Z" fill="none"/>
    </clipPath>
  </defs>
  <g id="white_logo" data-name="white logo" transform="translate(0)">
    <path id="Fill_1" data-name="Fill 1" d="M49.791,22.5a1.985,1.985,0,1,1,1.959-1.985A1.974,1.974,0,0,1,49.791,22.5Zm-3.916,0a1.985,1.985,0,1,1,1.958-1.985A1.974,1.974,0,0,1,45.875,22.5Zm-3.917,0a1.985,1.985,0,1,1,1.958-1.985A1.974,1.974,0,0,1,41.958,22.5Zm-3.916,0A1.985,1.985,0,1,1,40,20.515,1.974,1.974,0,0,1,38.042,22.5Zm-3.917,0a1.985,1.985,0,1,1,1.958-1.985A1.974,1.974,0,0,1,34.125,22.5ZM47,16.65H2.377A2.348,2.348,0,0,1,.7,15.945a2.413,2.413,0,0,1-.7-1.7,2.443,2.443,0,0,1,.7-1.7,2.346,2.346,0,0,1,1.681-.706H25.466L22.907,7.337a2.855,2.855,0,0,1,1.022-3.865L28.562.761l.751-.44A2.336,2.336,0,0,1,30.492,0,2.365,2.365,0,0,1,32.54,1.2l.007.012.007.012a2.438,2.438,0,0,1,.236,1.816,2.406,2.406,0,0,1-1.1,1.454L28.6,6.3l-.3.178a.347.347,0,0,0-.124.47l2.78,4.882h8.959a1.069,1.069,0,0,0,.766-.321,1.1,1.1,0,0,0,.317-.776V9.124a1.881,1.881,0,0,1,3.22-1.352,1.939,1.939,0,0,1,.553,1.352v1.613a1.092,1.092,0,0,0,1.081,1.1h1.046a1.071,1.071,0,0,0,.766-.321,1.113,1.113,0,0,0,.317-.776V9.124A1.881,1.881,0,0,1,51.2,7.772a1.939,1.939,0,0,1,.553,1.352v3.031h-.011a4.842,4.842,0,0,1-1.38,3.085A4.681,4.681,0,0,1,47,16.65Z" transform="translate(0 0)" fill="#fff"/>
    <path id="Fill_2" data-name="Fill 2" d="M4.265,22.5a2.391,2.391,0,0,1-1.2-.323,2.416,2.416,0,0,1-.881-3.29L3.7,16.258A5.747,5.747,0,0,1,.766,8.01a5.713,5.713,0,0,1,7.821-2.1,5.775,5.775,0,0,1,2.863,4.969V2.41a2.4,2.4,0,1,1,4.8,0v9.419a4.8,4.8,0,0,1-4.787,4.8H9.028L6.345,21.3A2.407,2.407,0,0,1,4.265,22.5ZM5.727,8.9a1.986,1.986,0,1,0,.988.266A1.986,1.986,0,0,0,5.727,8.9Zm15.128,7.736h-.016a2.374,2.374,0,0,1-1.692-.7,2.422,2.422,0,0,1-.7-1.7V2.4A2.4,2.4,0,0,1,20.839,0h.016a2.4,2.4,0,0,1,2.394,2.4V14.23a2.4,2.4,0,0,1-2.394,2.4Z" transform="translate(52.78 0)" fill="#fff"/>
    <path id="Fill_3" data-name="Fill 3" d="M20.648,15.493A10.847,10.847,0,1,1,10.836,0a10.786,10.786,0,0,1,7.787,3.316h6.285a.594.594,0,0,1,.524.871L23.284,8.264a4.7,4.7,0,0,1-1.643,1.782q.031.41.031.829a10.905,10.905,0,0,1-.422,3.014H22.1a.8.8,0,0,1,0,1.6Z" transform="translate(79.109 0)" fill="#fff"/>
    <g id="Group_6" data-name="Group 6" transform="translate(79.396 0.065)">
      <path id="Clip_5-2" data-name="Clip 5" d="M23.822,10.8c0-3.556,3.407-6.713.8-8.682C22.858.789,12.971,0,10.608,0A10.712,10.712,0,0,0,0,10.8a10.712,10.712,0,0,0,10.608,10.8c4.023,0,10.6-2.286,12.394-5.652A10.694,10.694,0,0,0,23.822,10.8Z" fill="none"/>
      <g id="Group_6-2" data-name="Group 6" clip-path="url(#clip-path)">
        <path id="Fill_4" data-name="Fill 4" d="M6.861,15.731H5.988a.29.29,0,0,1-.287-.292v-.006a.291.291,0,0,1,.287-.292h.873a.29.29,0,0,1,.286.292v.006A.289.289,0,0,1,6.861,15.731Zm8.289-.768H8.3a.289.289,0,0,1-.286-.292v-.006a.289.289,0,0,1,.286-.292h6.85a.289.289,0,0,1,.286.292v.006A.29.29,0,0,1,15.15,14.963ZM7.562,13.432H2.238L0,13.43V12.252H7.562a3.556,3.556,0,0,0,3.2-2.007l.443-.9H5.776A.579.579,0,0,1,5.2,8.764V8.752a.579.579,0,0,1,.572-.584h6.991a3.555,3.555,0,0,0,3.2-2.007l.443-.9H7.8a.579.579,0,0,1-.572-.584V4.668A.579.579,0,0,1,7.8,4.084H17.973a3.556,3.556,0,0,0,3.2-2.007l.443-.9H0V0H22.625a.533.533,0,0,1,.454.259.546.546,0,0,1,.022.53l-.9,1.819a4.7,4.7,0,0,1-4.23,2.656H17.7L17,6.692a4.7,4.7,0,0,1-4.23,2.655H12.5l-.7,1.422h4.416a.29.29,0,0,1,.287.292v.006a.29.29,0,0,1-.287.292h-4.76A4.712,4.712,0,0,1,7.562,13.432Zm6.529-.88H12.06a.29.29,0,0,1-.286-.292v-.005a.29.29,0,0,1,.286-.292h2.03a.29.29,0,0,1,.286.292v.005A.29.29,0,0,1,14.091,12.552Zm7.422-2.045H14.663a.29.29,0,0,1-.286-.292v-.005a.29.29,0,0,1,.286-.292h6.849a.29.29,0,0,1,.287.292v.005A.29.29,0,0,1,21.512,10.507Z" transform="translate(0 4.375)" fill="#00bfff"/>
      </g>
    </g>
  </g>
</svg>
